<svg width="26" height="20" viewBox="0 0 26 20" fill="none" xmlns="http://www.w3.org/2000/svg">
<path d="M9.57288 0.554777L10.0994 1.77302C11.3237 1.52814 14.8682 2.1342 15.7069 1.60773C16.013 1.41183 16.0926 0.695578 16.4966 0.591508C16.8456 0.505802 21.1186 1.88321 21.5043 2.21991C21.9144 2.57497 23.0102 4.65639 23.3041 5.28081C25.0182 8.89268 25.5018 12.5535 25.1161 16.5327L18.9515 19.5814L17.5618 17.3836L19.0617 15.9879C15.0641 17.9958 10.534 17.8856 6.53034 15.9879C5.82633 16.6245 8.29342 17.1143 8.36076 17.2L6.6895 19.5201L0.475871 16.5266C0.139172 13.0739 0.530964 9.82319 1.79206 6.60312C2.09202 5.8379 3.81225 2.37295 4.29587 2.04238C4.82235 1.68731 9.30963 0.365001 9.56675 0.548655L9.57288 0.554777ZM10.1177 12.8719C12.4624 10.9986 8.88111 6.64597 7.0262 9.6579C5.63043 11.9107 8.15874 14.439 10.1177 12.8719ZM16.2334 8.78249C13.8459 9.49261 14.6723 14.084 17.6353 13.2024C20.0228 12.4923 19.1964 7.90095 16.2334 8.78249Z" fill="#D9D9D9"/>
</svg>
