<svg width="181" height="52" viewBox="0 0 181 52" fill="none" xmlns="http://www.w3.org/2000/svg">
<path d="M100.775 42.7042L97.2469 40.248C94.7798 42.3225 90.9072 43.0858 84.9116 43.0858C71.6426 43.0858 68.7529 39.3184 68.7529 25.9806C68.7529 12.6429 71.6426 8.87549 84.9116 8.87549C98.1806 8.87549 101.07 12.6429 101.07 25.9806C101.07 30.1689 100.775 33.4274 99.9695 35.8836L103.793 38.5551L100.775 42.7042ZM74.8272 25.9806C74.8272 36.3925 75.9772 37.7918 84.9116 37.7918C88.3616 37.7918 90.6517 37.5765 92.185 36.735L82.7001 30.1297L85.806 25.9806L94.6914 32.1651C94.9076 30.5994 94.9862 28.564 94.9862 25.9806C94.9862 15.5199 93.8362 14.1695 84.9116 14.1695C75.987 14.1695 74.8272 15.5199 74.8272 25.9806Z" fill="#F0F2EF"/>
<path d="M113.661 42.7531C107.282 42.7531 104.904 40.1306 104.904 33.907V18.9155H110.516V32.674C110.516 36.784 111.794 37.8408 115.784 37.8408C120.335 37.8408 121.308 36.7448 121.308 32.1652V18.9155H126.921V42.4596H121.348V38.9857H121.259C120.365 41.4419 118.369 42.7531 113.652 42.7531H113.661Z" fill="#F0F2EF"/>
<path d="M128.896 42.8115V9.96143H153.704V15.1576H134.793V23.4753H152.652V28.5442H134.793V37.6252H153.92V42.8213H128.896V42.8115Z" fill="#F0F2EF"/>
<path d="M155.473 42.8115L164.467 30.6089L156.073 19.3359H162.481L168.251 27.2329L173.981 19.3359H180.262L171.868 30.6089L180.9 42.8115H174.453L168.133 34.2002L161.813 42.8115H155.493H155.473Z" fill="#F0F2EF"/>
<path d="M8.70839 17.3302V8.66022H38.942V25.9904L31.4917 18.573L25.3389 24.6987L35.3447 34.6604H38.9519L47.6603 25.9904V8.67L38.9322 0H8.70839L0 8.67V17.34H8.70839V17.3302Z" fill="#F0F2EF"/>
<path d="M38.9322 34.6696V43.3396H8.70839V26.0094L16.1587 33.4268L22.3116 27.3011L12.3058 17.3394H8.69856L0 25.9996V43.3298L8.70839 51.9998H38.942L47.6504 43.3298V34.6598H38.942L38.9322 34.6696Z" fill="#F0F2EF"/>
</svg>
