<svg width="559" height="900" viewBox="0 0 559 900" fill="none" xmlns="http://www.w3.org/2000/svg">
<g clip-path="url(#clip0_683_7614)">
<mask id="mask0_683_7614" style="mask-type:alpha" maskUnits="userSpaceOnUse" x="-271" y="164" width="369" height="537">
<path d="M-32.4563 199.954L-260.468 594.883C-280.082 628.854 -269.116 671.93 -235.985 691.058C-202.853 710.187 -160.066 698.145 -140.452 664.174L87.4596 269.419C107.073 235.447 96.1073 192.371 62.9761 173.243C29.945 153.942 -12.8428 165.983 -32.4563 199.954Z" fill="url(#paint0_linear_683_7614)"/>
</mask>
<g mask="url(#mask0_683_7614)">
<g filter="url(#filter0_ii_683_7614)">
<path d="M-32.4562 199.954L-260.88 595.596C-280.493 629.567 -269.527 672.643 -236.396 691.772C-203.265 710.9 -160.477 698.859 -140.864 664.887L87.4598 269.419C107.073 235.447 96.1075 192.371 62.9763 173.243C29.9452 153.941 -12.8426 165.983 -32.4562 199.954Z" fill="url(#paint1_linear_683_7614)"/>
<path d="M-32.4562 199.954L-260.88 595.596C-280.493 629.567 -269.527 672.643 -236.396 691.772C-203.265 710.9 -160.477 698.859 -140.864 664.887L87.4598 269.419C107.073 235.447 96.1075 192.371 62.9763 173.243C29.9452 153.941 -12.8426 165.983 -32.4562 199.954Z" fill="#073B37" fill-opacity="0.8"/>
</g>
</g>
<mask id="mask1_683_7614" style="mask-type:alpha" maskUnits="userSpaceOnUse" x="38" y="342" width="368" height="537">
<path d="M276.258 378.191L48.2462 773.119C28.6327 807.091 39.5985 850.167 72.7297 869.295C105.861 888.423 148.649 876.382 168.262 842.41L396.174 447.655C415.788 413.684 404.822 370.608 371.69 351.479C338.659 332.178 295.872 344.219 276.258 378.191Z" fill="url(#paint2_linear_683_7614)"/>
</mask>
<g mask="url(#mask1_683_7614)">
<g filter="url(#filter1_ii_683_7614)">
<path d="M276.258 378.191L47.8346 773.832C28.2211 807.804 39.1869 850.88 72.3181 870.008C105.449 889.136 148.237 877.095 167.851 843.123L396.174 447.655C415.788 413.684 404.822 370.608 371.691 351.479C338.66 332.178 295.872 344.219 276.258 378.191Z" fill="url(#paint3_linear_683_7614)"/>
<path d="M276.258 378.191L47.8346 773.832C28.2211 807.804 39.1869 850.88 72.3181 870.008C105.449 889.136 148.237 877.095 167.851 843.123L396.174 447.655C415.788 413.684 404.822 370.608 371.691 351.479C338.66 332.178 295.872 344.219 276.258 378.191Z" fill="#073B37" fill-opacity="0.8"/>
</g>
</g>
<mask id="mask2_683_7614" style="mask-type:alpha" maskUnits="userSpaceOnUse" x="-34" y="110" width="368" height="537">
<path d="M-23.9167 541.636L204.095 146.708C223.709 112.736 266.496 100.695 299.628 119.823C332.759 138.951 343.725 182.027 324.111 215.999L96.1994 610.754C76.5858 644.725 33.798 656.767 0.666852 637.638C-32.5644 618.684 -43.5302 575.608 -23.9167 541.636Z" fill="url(#paint4_linear_683_7614)"/>
</mask>
<g mask="url(#mask2_683_7614)">
<g filter="url(#filter2_ii_683_7614)">
<path d="M-23.9169 541.636L204.507 145.995C224.12 112.023 266.908 99.9817 300.039 119.11C333.17 138.238 344.136 181.314 324.523 215.286L96.1992 610.754C76.5856 644.726 33.7978 656.767 0.666619 637.639C-32.5646 618.684 -43.5304 575.608 -23.9169 541.636Z" fill="url(#paint5_linear_683_7614)"/>
<path d="M-23.9169 541.636L204.507 145.995C224.12 112.023 266.908 99.9817 300.039 119.11C333.17 138.238 344.136 181.314 324.523 215.286L96.1992 610.754C76.5856 644.726 33.7978 656.767 0.666619 637.639C-32.5646 618.684 -43.5304 575.608 -23.9169 541.636Z" fill="#073B37" fill-opacity="0.8"/>
</g>
</g>
</g>
<defs>
<filter id="filter0_ii_683_7614" x="-270.612" y="164.032" width="394.154" height="584.83" filterUnits="userSpaceOnUse" color-interpolation-filters="sRGB">
<feFlood flood-opacity="0" result="BackgroundImageFix"/>
<feBlend mode="normal" in="SourceGraphic" in2="BackgroundImageFix" result="shape"/>
<feColorMatrix in="SourceAlpha" type="matrix" values="0 0 0 0 0 0 0 0 0 0 0 0 0 0 0 0 0 0 127 0" result="hardAlpha"/>
<feOffset dy="48"/>
<feGaussianBlur stdDeviation="38.9971"/>
<feComposite in2="hardAlpha" operator="arithmetic" k2="-1" k3="1"/>
<feColorMatrix type="matrix" values="0 0 0 0 1 0 0 0 0 1 0 0 0 0 1 0 0 0 0.8 0"/>
<feBlend mode="lighten" in2="shape" result="effect1_innerShadow_683_7614"/>
<feColorMatrix in="SourceAlpha" type="matrix" values="0 0 0 0 0 0 0 0 0 0 0 0 0 0 0 0 0 0 127 0" result="hardAlpha"/>
<feOffset dx="26.3494" dy="15.3705"/>
<feGaussianBlur stdDeviation="15.3705"/>
<feComposite in2="hardAlpha" operator="arithmetic" k2="-1" k3="1"/>
<feColorMatrix type="matrix" values="0 0 0 0 0.168627 0 0 0 0 0.180392 0 0 0 0 0.239216 0 0 0 0.9 0"/>
<feBlend mode="multiply" in2="effect1_innerShadow_683_7614" result="effect2_innerShadow_683_7614"/>
</filter>
<filter id="filter1_ii_683_7614" x="38.1021" y="342.269" width="394.154" height="584.83" filterUnits="userSpaceOnUse" color-interpolation-filters="sRGB">
<feFlood flood-opacity="0" result="BackgroundImageFix"/>
<feBlend mode="normal" in="SourceGraphic" in2="BackgroundImageFix" result="shape"/>
<feColorMatrix in="SourceAlpha" type="matrix" values="0 0 0 0 0 0 0 0 0 0 0 0 0 0 0 0 0 0 127 0" result="hardAlpha"/>
<feOffset dy="48"/>
<feGaussianBlur stdDeviation="38.9971"/>
<feComposite in2="hardAlpha" operator="arithmetic" k2="-1" k3="1"/>
<feColorMatrix type="matrix" values="0 0 0 0 1 0 0 0 0 1 0 0 0 0 1 0 0 0 0.8 0"/>
<feBlend mode="lighten" in2="shape" result="effect1_innerShadow_683_7614"/>
<feColorMatrix in="SourceAlpha" type="matrix" values="0 0 0 0 0 0 0 0 0 0 0 0 0 0 0 0 0 0 127 0" result="hardAlpha"/>
<feOffset dx="26.3494" dy="15.3705"/>
<feGaussianBlur stdDeviation="15.3705"/>
<feComposite in2="hardAlpha" operator="arithmetic" k2="-1" k3="1"/>
<feColorMatrix type="matrix" values="0 0 0 0 0.168627 0 0 0 0 0.180392 0 0 0 0 0.239216 0 0 0 0.9 0"/>
<feBlend mode="multiply" in2="effect1_innerShadow_683_7614" result="effect2_innerShadow_683_7614"/>
</filter>
<filter id="filter2_ii_683_7614" x="-33.646" y="110.019" width="394.251" height="584.711" filterUnits="userSpaceOnUse" color-interpolation-filters="sRGB">
<feFlood flood-opacity="0" result="BackgroundImageFix"/>
<feBlend mode="normal" in="SourceGraphic" in2="BackgroundImageFix" result="shape"/>
<feColorMatrix in="SourceAlpha" type="matrix" values="0 0 0 0 0 0 0 0 0 0 0 0 0 0 0 0 0 0 127 0" result="hardAlpha"/>
<feOffset dy="48"/>
<feGaussianBlur stdDeviation="38.9971"/>
<feComposite in2="hardAlpha" operator="arithmetic" k2="-1" k3="1"/>
<feColorMatrix type="matrix" values="0 0 0 0 1 0 0 0 0 1 0 0 0 0 1 0 0 0 0.8 0"/>
<feBlend mode="lighten" in2="shape" result="effect1_innerShadow_683_7614"/>
<feColorMatrix in="SourceAlpha" type="matrix" values="0 0 0 0 0 0 0 0 0 0 0 0 0 0 0 0 0 0 127 0" result="hardAlpha"/>
<feOffset dx="26.3494" dy="15.3705"/>
<feGaussianBlur stdDeviation="15.3705"/>
<feComposite in2="hardAlpha" operator="arithmetic" k2="-1" k3="1"/>
<feColorMatrix type="matrix" values="0 0 0 0 0.168627 0 0 0 0 0.180392 0 0 0 0 0.239216 0 0 0 0.9 0"/>
<feBlend mode="multiply" in2="effect1_innerShadow_683_7614" result="effect2_innerShadow_683_7614"/>
</filter>
<linearGradient id="paint0_linear_683_7614" x1="-81.1362" y1="510.486" x2="-74.5505" y2="191.527" gradientUnits="userSpaceOnUse">
<stop offset="0.132716" stop-opacity="0"/>
<stop offset="1"/>
</linearGradient>
<linearGradient id="paint1_linear_683_7614" x1="-252.359" y1="460.389" x2="-93.9963" y2="521.608" gradientUnits="userSpaceOnUse">
<stop stop-color="#073B37"/>
<stop offset="0.635171" stop-color="#073B37"/>
<stop offset="1" stop-color="#073B37"/>
</linearGradient>
<linearGradient id="paint2_linear_683_7614" x1="227.578" y1="688.723" x2="234.164" y2="369.764" gradientUnits="userSpaceOnUse">
<stop offset="0.132716" stop-opacity="0"/>
<stop offset="1"/>
</linearGradient>
<linearGradient id="paint3_linear_683_7614" x1="56.3549" y1="638.625" x2="214.718" y2="699.845" gradientUnits="userSpaceOnUse">
<stop stop-color="#073B37"/>
<stop offset="0.635171" stop-color="#073B37"/>
<stop offset="1" stop-color="#073B37"/>
</linearGradient>
<linearGradient id="paint4_linear_683_7614" x1="220.672" y1="344.212" x2="-52.2618" y2="509.395" gradientUnits="userSpaceOnUse">
<stop offset="0.132716" stop-opacity="0"/>
<stop offset="1"/>
</linearGradient>
<linearGradient id="paint5_linear_683_7614" x1="91.6743" y1="220.977" x2="223.874" y2="327.514" gradientUnits="userSpaceOnUse">
<stop stop-color="#073B37"/>
<stop offset="0.635171" stop-color="#073B37"/>
<stop offset="1" stop-color="#073B37"/>
</linearGradient>
<clipPath id="clip0_683_7614">
<rect width="900" height="900" fill="white" transform="translate(-341)"/>
</clipPath>
</defs>
</svg>
