<svg width="580" height="900" viewBox="0 0 580 900" fill="none" xmlns="http://www.w3.org/2000/svg">
<g clip-path="url(#clip0_683_9764)">
<mask id="mask0_683_9764" style="mask-type:alpha" maskUnits="userSpaceOnUse" x="-250" y="164" width="369" height="537">
<path d="M-11.4563 199.955L-239.468 594.883C-259.082 628.854 -248.116 671.93 -214.985 691.059C-181.853 710.187 -139.066 698.146 -119.452 664.174L108.46 269.419C128.073 235.448 117.107 192.372 83.9761 173.243C50.945 153.942 8.15723 165.983 -11.4563 199.955Z" fill="url(#paint0_linear_683_9764)"/>
</mask>
<g mask="url(#mask0_683_9764)">
<g filter="url(#filter0_ii_683_9764)">
<path d="M-11.4562 199.954L-239.88 595.596C-259.493 629.567 -248.527 672.643 -215.396 691.772C-182.265 710.9 -139.477 698.859 -119.864 664.887L108.46 269.419C128.073 235.447 117.108 192.371 83.9763 173.243C50.9452 153.941 8.15739 165.983 -11.4562 199.954Z" fill="url(#paint1_linear_683_9764)"/>
<path d="M-11.4562 199.954L-239.88 595.596C-259.493 629.567 -248.527 672.643 -215.396 691.772C-182.265 710.9 -139.477 698.859 -119.864 664.887L108.46 269.419C128.073 235.447 117.108 192.371 83.9763 173.243C50.9452 153.941 8.15739 165.983 -11.4562 199.954Z" fill="#073B37" fill-opacity="0.8"/>
</g>
</g>
<mask id="mask1_683_9764" style="mask-type:alpha" maskUnits="userSpaceOnUse" x="59" y="342" width="368" height="537">
<path d="M297.258 378.191L69.2462 773.119C49.6327 807.091 60.5985 850.167 93.7297 869.295C126.861 888.423 169.649 876.382 189.262 842.41L417.174 447.656C436.788 413.684 425.822 370.608 392.69 351.48C359.659 332.178 316.872 344.219 297.258 378.191Z" fill="url(#paint2_linear_683_9764)"/>
</mask>
<g mask="url(#mask1_683_9764)">
<g filter="url(#filter1_ii_683_9764)">
<path d="M297.258 378.191L68.8346 773.832C49.2211 807.804 60.1869 850.88 93.3181 870.008C126.449 889.136 169.237 877.095 188.851 843.123L417.174 447.655C436.788 413.684 425.822 370.608 392.691 351.479C359.66 332.178 316.872 344.219 297.258 378.191Z" fill="url(#paint3_linear_683_9764)"/>
<path d="M297.258 378.191L68.8346 773.832C49.2211 807.804 60.1869 850.88 93.3181 870.008C126.449 889.136 169.237 877.095 188.851 843.123L417.174 447.655C436.788 413.684 425.822 370.608 392.691 351.479C359.66 332.178 316.872 344.219 297.258 378.191Z" fill="#073B37" fill-opacity="0.8"/>
</g>
</g>
<mask id="mask2_683_9764" style="mask-type:alpha" maskUnits="userSpaceOnUse" x="-13" y="110" width="368" height="537">
<path d="M-2.91669 541.636L225.095 146.708C244.709 112.736 287.496 100.695 320.628 119.823C353.759 138.952 364.725 182.028 345.111 215.999L117.199 610.754C97.5858 644.726 54.798 656.767 21.6669 637.639C-11.5644 618.684 -22.5302 575.608 -2.91669 541.636Z" fill="url(#paint4_linear_683_9764)"/>
</mask>
<g mask="url(#mask2_683_9764)">
<g filter="url(#filter2_ii_683_9764)">
<path d="M-2.91688 541.636L225.507 145.995C245.12 112.023 287.908 99.9822 321.039 119.11C354.17 138.239 365.136 181.315 345.523 215.286L117.199 610.754C97.5856 644.726 54.7978 656.767 21.6666 637.639C-11.5646 618.684 -22.5304 575.608 -2.91688 541.636Z" fill="url(#paint5_linear_683_9764)"/>
<path d="M-2.91688 541.636L225.507 145.995C245.12 112.023 287.908 99.9822 321.039 119.11C354.17 138.239 365.136 181.315 345.523 215.286L117.199 610.754C97.5856 644.726 54.7978 656.767 21.6666 637.639C-11.5646 618.684 -22.5304 575.608 -2.91688 541.636Z" fill="#073B37" fill-opacity="0.8"/>
</g>
</g>
</g>
<defs>
<filter id="filter0_ii_683_9764" x="-249.612" y="164.032" width="394.154" height="584.831" filterUnits="userSpaceOnUse" color-interpolation-filters="sRGB">
<feFlood flood-opacity="0" result="BackgroundImageFix"/>
<feBlend mode="normal" in="SourceGraphic" in2="BackgroundImageFix" result="shape"/>
<feColorMatrix in="SourceAlpha" type="matrix" values="0 0 0 0 0 0 0 0 0 0 0 0 0 0 0 0 0 0 127 0" result="hardAlpha"/>
<feOffset dy="48"/>
<feGaussianBlur stdDeviation="38.9971"/>
<feComposite in2="hardAlpha" operator="arithmetic" k2="-1" k3="1"/>
<feColorMatrix type="matrix" values="0 0 0 0 1 0 0 0 0 1 0 0 0 0 1 0 0 0 0.8 0"/>
<feBlend mode="lighten" in2="shape" result="effect1_innerShadow_683_9764"/>
<feColorMatrix in="SourceAlpha" type="matrix" values="0 0 0 0 0 0 0 0 0 0 0 0 0 0 0 0 0 0 127 0" result="hardAlpha"/>
<feOffset dx="26.3494" dy="15.3705"/>
<feGaussianBlur stdDeviation="15.3705"/>
<feComposite in2="hardAlpha" operator="arithmetic" k2="-1" k3="1"/>
<feColorMatrix type="matrix" values="0 0 0 0 0.168627 0 0 0 0 0.180392 0 0 0 0 0.239216 0 0 0 0.9 0"/>
<feBlend mode="multiply" in2="effect1_innerShadow_683_9764" result="effect2_innerShadow_683_9764"/>
</filter>
<filter id="filter1_ii_683_9764" x="59.1021" y="342.269" width="394.154" height="584.831" filterUnits="userSpaceOnUse" color-interpolation-filters="sRGB">
<feFlood flood-opacity="0" result="BackgroundImageFix"/>
<feBlend mode="normal" in="SourceGraphic" in2="BackgroundImageFix" result="shape"/>
<feColorMatrix in="SourceAlpha" type="matrix" values="0 0 0 0 0 0 0 0 0 0 0 0 0 0 0 0 0 0 127 0" result="hardAlpha"/>
<feOffset dy="48"/>
<feGaussianBlur stdDeviation="38.9971"/>
<feComposite in2="hardAlpha" operator="arithmetic" k2="-1" k3="1"/>
<feColorMatrix type="matrix" values="0 0 0 0 1 0 0 0 0 1 0 0 0 0 1 0 0 0 0.8 0"/>
<feBlend mode="lighten" in2="shape" result="effect1_innerShadow_683_9764"/>
<feColorMatrix in="SourceAlpha" type="matrix" values="0 0 0 0 0 0 0 0 0 0 0 0 0 0 0 0 0 0 127 0" result="hardAlpha"/>
<feOffset dx="26.3494" dy="15.3705"/>
<feGaussianBlur stdDeviation="15.3705"/>
<feComposite in2="hardAlpha" operator="arithmetic" k2="-1" k3="1"/>
<feColorMatrix type="matrix" values="0 0 0 0 0.168627 0 0 0 0 0.180392 0 0 0 0 0.239216 0 0 0 0.9 0"/>
<feBlend mode="multiply" in2="effect1_innerShadow_683_9764" result="effect2_innerShadow_683_9764"/>
</filter>
<filter id="filter2_ii_683_9764" x="-12.646" y="110.02" width="394.251" height="584.71" filterUnits="userSpaceOnUse" color-interpolation-filters="sRGB">
<feFlood flood-opacity="0" result="BackgroundImageFix"/>
<feBlend mode="normal" in="SourceGraphic" in2="BackgroundImageFix" result="shape"/>
<feColorMatrix in="SourceAlpha" type="matrix" values="0 0 0 0 0 0 0 0 0 0 0 0 0 0 0 0 0 0 127 0" result="hardAlpha"/>
<feOffset dy="48"/>
<feGaussianBlur stdDeviation="38.9971"/>
<feComposite in2="hardAlpha" operator="arithmetic" k2="-1" k3="1"/>
<feColorMatrix type="matrix" values="0 0 0 0 1 0 0 0 0 1 0 0 0 0 1 0 0 0 0.8 0"/>
<feBlend mode="lighten" in2="shape" result="effect1_innerShadow_683_9764"/>
<feColorMatrix in="SourceAlpha" type="matrix" values="0 0 0 0 0 0 0 0 0 0 0 0 0 0 0 0 0 0 127 0" result="hardAlpha"/>
<feOffset dx="26.3494" dy="15.3705"/>
<feGaussianBlur stdDeviation="15.3705"/>
<feComposite in2="hardAlpha" operator="arithmetic" k2="-1" k3="1"/>
<feColorMatrix type="matrix" values="0 0 0 0 0.168627 0 0 0 0 0.180392 0 0 0 0 0.239216 0 0 0 0.9 0"/>
<feBlend mode="multiply" in2="effect1_innerShadow_683_9764" result="effect2_innerShadow_683_9764"/>
</filter>
<linearGradient id="paint0_linear_683_9764" x1="-60.1362" y1="510.486" x2="-53.5505" y2="191.528" gradientUnits="userSpaceOnUse">
<stop offset="0.132716" stop-opacity="0"/>
<stop offset="1"/>
</linearGradient>
<linearGradient id="paint1_linear_683_9764" x1="-231.359" y1="460.389" x2="-72.9963" y2="521.608" gradientUnits="userSpaceOnUse">
<stop stop-color="#073B37"/>
<stop offset="0.635171" stop-color="#073B37"/>
<stop offset="1" stop-color="#073B37"/>
</linearGradient>
<linearGradient id="paint2_linear_683_9764" x1="248.578" y1="688.723" x2="255.164" y2="369.764" gradientUnits="userSpaceOnUse">
<stop offset="0.132716" stop-opacity="0"/>
<stop offset="1"/>
</linearGradient>
<linearGradient id="paint3_linear_683_9764" x1="77.3549" y1="638.625" x2="235.718" y2="699.845" gradientUnits="userSpaceOnUse">
<stop stop-color="#073B37"/>
<stop offset="0.635171" stop-color="#073B37"/>
<stop offset="1" stop-color="#073B37"/>
</linearGradient>
<linearGradient id="paint4_linear_683_9764" x1="241.672" y1="344.212" x2="-31.2618" y2="509.395" gradientUnits="userSpaceOnUse">
<stop offset="0.132716" stop-opacity="0"/>
<stop offset="1"/>
</linearGradient>
<linearGradient id="paint5_linear_683_9764" x1="112.674" y1="220.977" x2="244.874" y2="327.514" gradientUnits="userSpaceOnUse">
<stop stop-color="#073B37"/>
<stop offset="0.635171" stop-color="#073B37"/>
<stop offset="1" stop-color="#073B37"/>
</linearGradient>
<clipPath id="clip0_683_9764">
<rect width="900" height="900" fill="white" transform="translate(-320)"/>
</clipPath>
</defs>
</svg>
