<svg width="26" height="30" viewBox="0 0 26 30" fill="none" xmlns="http://www.w3.org/2000/svg">
<path d="M9.79542 29.1666C7.70176 29.0931 4.4572 27.5627 3.07367 25.9771C-2.60125 19.4697 3.31855 9.69313 11.632 11.297V16.1394C8.15477 15.5027 4.80615 17.7617 6.055 21.5082C7.4875 25.7996 14.0746 23.9324 14.0746 21.1348V0.700195H19.272C19.0394 4.42838 22.6084 6.92607 25.9998 7.36072V12.5092C23.4226 12.3071 20.9922 11.3215 18.9659 9.78496V22.0469C18.9659 22.2551 17.6374 24.967 17.3865 25.3282C15.9846 27.3729 12.8686 29.0258 10.4015 29.1605C10.1995 29.1727 9.99131 29.1666 9.78929 29.1605L9.79542 29.1666Z" fill="#D9D9D9"/>
</svg>
