<svg width="26" height="21" viewBox="0 0 26 21" fill="none" xmlns="http://www.w3.org/2000/svg">
<path d="M13.0548 11.9495C14.524 10.3885 17.0401 8.99884 18.142 7.14393C18.3808 6.74601 18.4848 6.40319 17.9951 6.39707C17.4441 6.39707 10.4041 11.8516 8.95318 12.5801C7.77167 13.1739 7.22683 13.431 5.84943 13.2841C4.73526 13.1678 -0.57847 11.8883 1.01932 10.1742L21.9559 1.22414C25.0964 0.336483 25.3229 1.23027 25.1454 4.07691C24.9066 7.85406 23.8108 14.5207 22.9538 18.255C22.5191 20.1528 22.0967 21.4934 19.7643 20.6854C18.5032 20.2507 11.7876 15.8124 11.3407 14.7717C11.0346 14.0555 12.4977 12.5372 13.0609 11.9373L13.0548 11.9495Z" fill="#D9D9D9"/>
</svg>
