<svg width="25" height="24" viewBox="0 0 25 24" fill="none" xmlns="http://www.w3.org/2000/svg">
<path d="M0.0122436 0.423949L7.35229 0.570873L13.621 8.59044C14.2271 8.59044 20.3673 0.6627 21.5794 0.423949C22.0997 0.319878 22.7119 0.454558 23.2506 0.423949C23.5077 0.644334 22.4119 1.96664 22.1854 2.24213C21.2304 3.40527 14.7842 9.58829 14.778 10.2617L24.4689 23.7358H17.2819L10.5234 14.9694C10.1377 14.8898 8.88886 16.2672 8.55829 16.6161C7.29107 17.9446 3.4527 22.8114 2.31404 23.4542C1.53045 23.9011 0.838687 23.7419 0 23.7419V23.1359L9.12149 13.243L0.0122436 1.03001V0.423949ZM21.1141 21.9237L6.7646 2.67065C5.87081 1.88094 4.49341 2.35232 3.37924 2.24213L17.8818 21.6421L21.1141 21.9176V21.9237Z" fill="#D9D9D9"/>
</svg>
