<svg width="26" height="18" viewBox="0 0 26 18" fill="none" xmlns="http://www.w3.org/2000/svg">
<path d="M3.50527 0.828243C9.13733 1.19555 15.9938 0.0997483 21.485 0.74866C22.9604 0.926192 23.8786 1.64244 24.4418 2.97088C25.3785 5.1686 25.4458 14.2962 23.9092 16.1879C23.1869 17.0755 21.9686 17.3265 20.8789 17.4245C16.9549 17.7673 8.18844 17.8469 4.35619 17.4122C2.96042 17.253 1.8034 16.6654 1.17897 15.4104C0.223972 13.4943 0.211736 5.18697 0.995327 3.17902C1.4361 2.0526 2.29926 1.13433 3.51138 0.822121L3.50527 0.828243ZM10.3127 5.60325V12.5699L16.4345 9.08656L10.3127 5.60325Z" fill="#D9D9D9"/>
</svg>
